<mxfile host="app.diagrams.net" modified="2023-09-04T15:53:27.171Z" agent="Mozilla/5.0 (X11; Ubuntu; Linux x86_64; rv:109.0) Gecko/20100101 Firefox/117.0" etag="i_Ctvl9SeenIWlJe5LVU" version="21.7.2" type="device">
  <diagram name="Page-1" id="P9_h08XneMgwSpBfJz6g">
    <mxGraphModel dx="650" dy="357" grid="1" gridSize="10" guides="1" tooltips="1" connect="1" arrows="1" fold="1" page="1" pageScale="2" pageWidth="850" pageHeight="1100" math="0" shadow="0">
      <root>
        <mxCell id="0" />
        <mxCell id="1" parent="0" />
        <mxCell id="sGS4nasx2kBWRTP7ISPX-44" style="rounded=0;orthogonalLoop=1;jettySize=auto;html=1;entryX=0;entryY=0;entryDx=0;entryDy=28.80945108961392;entryPerimeter=0;endArrow=none;endFill=0;dashed=1;dashPattern=1 4;fillColor=#dae8fc;strokeColor=#6c8ebf;exitX=0;exitY=0;exitDx=0;exitDy=22.79763722759652;exitPerimeter=0;" edge="1" parent="1" source="llZTtqRXWTdCPuyKn7po-6" target="llZTtqRXWTdCPuyKn7po-7">
          <mxGeometry relative="1" as="geometry">
            <mxPoint x="90" y="530" as="sourcePoint" />
          </mxGeometry>
        </mxCell>
        <mxCell id="sGS4nasx2kBWRTP7ISPX-45" style="rounded=0;orthogonalLoop=1;jettySize=auto;html=1;entryX=0;entryY=0;entryDx=120;entryDy=28.80945108961392;entryPerimeter=0;exitX=0;exitY=0;exitDx=30.000000000000004;exitDy=22.797637227596525;exitPerimeter=0;endArrow=none;endFill=0;dashed=1;dashPattern=1 4;fillColor=#dae8fc;strokeColor=#6c8ebf;" edge="1" parent="1" source="llZTtqRXWTdCPuyKn7po-6" target="llZTtqRXWTdCPuyKn7po-7">
          <mxGeometry relative="1" as="geometry">
            <mxPoint x="135" y="450" as="sourcePoint" />
            <mxPoint x="260" y="516" as="targetPoint" />
          </mxGeometry>
        </mxCell>
        <mxCell id="sGS4nasx2kBWRTP7ISPX-46" style="rounded=0;orthogonalLoop=1;jettySize=auto;html=1;entryX=0.5;entryY=0;entryDx=0;entryDy=0;entryPerimeter=0;exitX=0.516;exitY=0.431;exitDx=0;exitDy=0;exitPerimeter=0;endArrow=none;endFill=0;dashed=1;dashPattern=1 4;fillColor=#dae8fc;strokeColor=#6c8ebf;" edge="1" parent="1" source="llZTtqRXWTdCPuyKn7po-6" target="llZTtqRXWTdCPuyKn7po-7">
          <mxGeometry relative="1" as="geometry">
            <mxPoint x="130" y="450" as="sourcePoint" />
            <mxPoint x="210" y="490" as="targetPoint" />
          </mxGeometry>
        </mxCell>
        <mxCell id="sGS4nasx2kBWRTP7ISPX-39" style="rounded=0;orthogonalLoop=1;jettySize=auto;html=1;entryX=0.501;entryY=0.477;entryDx=0;entryDy=0;entryPerimeter=0;exitX=0.5;exitY=0;exitDx=0;exitDy=0;exitPerimeter=0;strokeColor=#b85450;shadow=0;endArrow=none;endFill=0;strokeWidth=1;fillColor=#f8cecc;dashed=1;dashPattern=1 2;" edge="1" parent="1" source="llZTtqRXWTdCPuyKn7po-4" target="llZTtqRXWTdCPuyKn7po-5">
          <mxGeometry relative="1" as="geometry" />
        </mxCell>
        <mxCell id="llZTtqRXWTdCPuyKn7po-4" value="" style="html=1;whiteSpace=wrap;shape=isoCube2;backgroundOutline=1;isoAngle=15;fillColor=none;strokeColor=#b85450;dashed=1;strokeWidth=2;" parent="1" vertex="1">
          <mxGeometry x="140" y="390" width="30" height="30" as="geometry" />
        </mxCell>
        <mxCell id="sGS4nasx2kBWRTP7ISPX-41" style="rounded=0;orthogonalLoop=1;jettySize=auto;html=1;entryX=0;entryY=0;entryDx=120;entryDy=91.19054891038608;entryPerimeter=0;exitX=0;exitY=0;exitDx=30;exitDy=7.20236277240348;exitPerimeter=0;strokeColor=#b85450;shadow=0;endArrow=none;endFill=0;strokeWidth=1;fillColor=#f8cecc;dashed=1;dashPattern=1 2;" edge="1" parent="1" source="llZTtqRXWTdCPuyKn7po-4" target="llZTtqRXWTdCPuyKn7po-5">
          <mxGeometry relative="1" as="geometry">
            <mxPoint x="230" y="400" as="sourcePoint" />
            <mxPoint x="410" y="327" as="targetPoint" />
          </mxGeometry>
        </mxCell>
        <mxCell id="sGS4nasx2kBWRTP7ISPX-42" style="rounded=0;orthogonalLoop=1;jettySize=auto;html=1;strokeColor=#b85450;shadow=0;endArrow=none;endFill=0;strokeWidth=1;fillColor=#f8cecc;dashed=1;dashPattern=1 2;entryX=0;entryY=0;entryDx=0;entryDy=91.19054891038608;entryPerimeter=0;exitX=0;exitY=0;exitDx=0;exitDy=7.20236277240348;exitPerimeter=0;" edge="1" parent="1" source="llZTtqRXWTdCPuyKn7po-4" target="llZTtqRXWTdCPuyKn7po-5">
          <mxGeometry relative="1" as="geometry">
            <mxPoint x="215" y="420" as="sourcePoint" />
            <mxPoint x="220" y="270" as="targetPoint" />
          </mxGeometry>
        </mxCell>
        <mxCell id="sGS4nasx2kBWRTP7ISPX-43" style="rounded=0;orthogonalLoop=1;jettySize=auto;html=1;entryX=0.5;entryY=1;entryDx=0;entryDy=0;entryPerimeter=0;strokeColor=#b85450;shadow=0;endArrow=none;endFill=0;exitX=0.497;exitY=0.479;exitDx=0;exitDy=0;exitPerimeter=0;strokeWidth=1;fillColor=#f8cecc;dashed=1;dashPattern=1 2;" edge="1" parent="1" source="llZTtqRXWTdCPuyKn7po-4" target="llZTtqRXWTdCPuyKn7po-5">
          <mxGeometry relative="1" as="geometry">
            <mxPoint x="225" y="410" as="sourcePoint" />
            <mxPoint x="370" y="390" as="targetPoint" />
          </mxGeometry>
        </mxCell>
        <mxCell id="llZTtqRXWTdCPuyKn7po-5" value="" style="html=1;whiteSpace=wrap;shape=isoCube2;backgroundOutline=1;isoAngle=15;fillColor=default;strokeColor=#B85450;" parent="1" vertex="1">
          <mxGeometry x="140" y="200" width="120" height="120" as="geometry" />
        </mxCell>
        <mxCell id="llZTtqRXWTdCPuyKn7po-7" value="" style="html=1;whiteSpace=wrap;shape=isoCube2;backgroundOutline=1;isoAngle=15;fillColor=default;strokeColor=#6C8EBF;" parent="1" vertex="1">
          <mxGeometry x="140" y="519.52" width="120" height="120" as="geometry" />
        </mxCell>
        <mxCell id="sGS4nasx2kBWRTP7ISPX-48" style="rounded=0;orthogonalLoop=1;jettySize=auto;html=1;entryX=0;entryY=0;entryDx=0;entryDy=91.19054891038608;entryPerimeter=0;exitX=0.5;exitY=1;exitDx=0;exitDy=0;exitPerimeter=0;strokeColor=#b85450;shadow=0;endArrow=block;endFill=1;strokeWidth=1;fillColor=#f8cecc;" edge="1" parent="1" source="llZTtqRXWTdCPuyKn7po-5" target="llZTtqRXWTdCPuyKn7po-8">
          <mxGeometry relative="1" as="geometry">
            <mxPoint x="240" y="403" as="sourcePoint" />
            <mxPoint x="371" y="321" as="targetPoint" />
          </mxGeometry>
        </mxCell>
        <mxCell id="sGS4nasx2kBWRTP7ISPX-49" style="rounded=0;orthogonalLoop=1;jettySize=auto;html=1;entryX=0.499;entryY=0.53;entryDx=0;entryDy=0;entryPerimeter=0;exitX=0;exitY=0;exitDx=120;exitDy=91.19054891038608;exitPerimeter=0;strokeColor=#b85450;shadow=0;endArrow=block;endFill=1;strokeWidth=1;fillColor=#f8cecc;" edge="1" parent="1" source="llZTtqRXWTdCPuyKn7po-5" target="llZTtqRXWTdCPuyKn7po-8">
          <mxGeometry relative="1" as="geometry">
            <mxPoint x="370" y="360" as="sourcePoint" />
            <mxPoint x="440" y="396" as="targetPoint" />
          </mxGeometry>
        </mxCell>
        <mxCell id="sGS4nasx2kBWRTP7ISPX-50" style="rounded=0;orthogonalLoop=1;jettySize=auto;html=1;entryX=0;entryY=0;entryDx=0;entryDy=28.80945108961392;entryPerimeter=0;exitX=0.498;exitY=0.469;exitDx=0;exitDy=0;exitPerimeter=0;strokeColor=#b85450;shadow=0;endArrow=block;endFill=1;strokeWidth=1;fillColor=#f8cecc;" edge="1" parent="1" source="llZTtqRXWTdCPuyKn7po-5" target="llZTtqRXWTdCPuyKn7po-8">
          <mxGeometry relative="1" as="geometry">
            <mxPoint x="370" y="360" as="sourcePoint" />
            <mxPoint x="440" y="396" as="targetPoint" />
          </mxGeometry>
        </mxCell>
        <mxCell id="sGS4nasx2kBWRTP7ISPX-51" style="rounded=0;orthogonalLoop=1;jettySize=auto;html=1;entryX=0.5;entryY=0;entryDx=0;entryDy=0;entryPerimeter=0;exitX=0;exitY=0;exitDx=120;exitDy=28.80945108961392;exitPerimeter=0;strokeColor=#b85450;shadow=0;endArrow=block;endFill=1;strokeWidth=1;fillColor=#f8cecc;" edge="1" parent="1" source="llZTtqRXWTdCPuyKn7po-5" target="llZTtqRXWTdCPuyKn7po-8">
          <mxGeometry relative="1" as="geometry">
            <mxPoint x="370" y="307" as="sourcePoint" />
            <mxPoint x="440" y="344" as="targetPoint" />
          </mxGeometry>
        </mxCell>
        <mxCell id="sGS4nasx2kBWRTP7ISPX-52" style="rounded=0;orthogonalLoop=1;jettySize=auto;html=1;entryX=0;entryY=0;entryDx=0;entryDy=91.19054891038608;entryPerimeter=0;exitX=0.5;exitY=1;exitDx=0;exitDy=0;exitPerimeter=0;strokeColor=#6c8ebf;shadow=0;endArrow=block;endFill=1;strokeWidth=1;fillColor=#dae8fc;" edge="1" parent="1" source="llZTtqRXWTdCPuyKn7po-7" target="llZTtqRXWTdCPuyKn7po-9">
          <mxGeometry relative="1" as="geometry">
            <mxPoint x="360" y="536" as="sourcePoint" />
            <mxPoint x="430" y="572" as="targetPoint" />
          </mxGeometry>
        </mxCell>
        <mxCell id="sGS4nasx2kBWRTP7ISPX-53" style="rounded=0;orthogonalLoop=1;jettySize=auto;html=1;exitX=0;exitY=0;exitDx=120;exitDy=91.19054891038608;exitPerimeter=0;strokeColor=#6c8ebf;shadow=0;endArrow=block;endFill=1;strokeWidth=1;fillColor=#dae8fc;entryX=0.513;entryY=0.51;entryDx=0;entryDy=0;entryPerimeter=0;" edge="1" parent="1" source="llZTtqRXWTdCPuyKn7po-7" target="llZTtqRXWTdCPuyKn7po-9">
          <mxGeometry relative="1" as="geometry">
            <mxPoint x="410" y="512" as="sourcePoint" />
            <mxPoint x="480" y="560" as="targetPoint" />
          </mxGeometry>
        </mxCell>
        <mxCell id="sGS4nasx2kBWRTP7ISPX-54" style="rounded=0;orthogonalLoop=1;jettySize=auto;html=1;entryX=0;entryY=0;entryDx=0;entryDy=28.80945108961392;entryPerimeter=0;exitX=0.503;exitY=0.483;exitDx=0;exitDy=0;exitPerimeter=0;strokeColor=#6c8ebf;shadow=0;endArrow=block;endFill=1;strokeWidth=1;fillColor=#dae8fc;" edge="1" parent="1" source="llZTtqRXWTdCPuyKn7po-7" target="llZTtqRXWTdCPuyKn7po-9">
          <mxGeometry relative="1" as="geometry">
            <mxPoint x="360" y="483" as="sourcePoint" />
            <mxPoint x="430" y="520" as="targetPoint" />
          </mxGeometry>
        </mxCell>
        <mxCell id="sGS4nasx2kBWRTP7ISPX-55" style="rounded=0;orthogonalLoop=1;jettySize=auto;html=1;entryX=0.5;entryY=0;entryDx=0;entryDy=0;entryPerimeter=0;exitX=0;exitY=0;exitDx=120;exitDy=28.80945108961392;exitPerimeter=0;strokeColor=#6c8ebf;shadow=0;endArrow=block;endFill=1;strokeWidth=1;fillColor=#dae8fc;" edge="1" parent="1" source="llZTtqRXWTdCPuyKn7po-7" target="llZTtqRXWTdCPuyKn7po-9">
          <mxGeometry relative="1" as="geometry">
            <mxPoint x="410" y="460" as="sourcePoint" />
            <mxPoint x="480" y="496" as="targetPoint" />
          </mxGeometry>
        </mxCell>
        <mxCell id="llZTtqRXWTdCPuyKn7po-9" value="" style="html=1;whiteSpace=wrap;shape=isoCube2;backgroundOutline=1;isoAngle=15;fillColor=default;" parent="1" vertex="1">
          <mxGeometry x="280" y="598.81" width="120" height="120" as="geometry" />
        </mxCell>
        <mxCell id="sGS4nasx2kBWRTP7ISPX-57" value="" style="html=1;whiteSpace=wrap;shape=isoCube2;backgroundOutline=1;isoAngle=15;fillColor=none;strokeColor=#FFFF00;dashed=1;strokeWidth=3;" vertex="1" parent="1">
          <mxGeometry x="280" y="598.81" width="120" height="120" as="geometry" />
        </mxCell>
        <mxCell id="sGS4nasx2kBWRTP7ISPX-58" style="rounded=0;orthogonalLoop=1;jettySize=auto;html=1;entryX=0.5;entryY=0.483;entryDx=0;entryDy=0;entryPerimeter=0;exitX=0.5;exitY=0;exitDx=0;exitDy=0;exitPerimeter=0;strokeColor=#FFFF00;shadow=0;endArrow=none;endFill=0;strokeWidth=1;fillColor=#fff2cc;dashed=1;dashPattern=1 2;" edge="1" parent="1" source="sGS4nasx2kBWRTP7ISPX-57" target="llZTtqRXWTdCPuyKn7po-10">
          <mxGeometry relative="1" as="geometry">
            <mxPoint x="570" y="586" as="sourcePoint" />
            <mxPoint x="640" y="632" as="targetPoint" />
          </mxGeometry>
        </mxCell>
        <mxCell id="sGS4nasx2kBWRTP7ISPX-59" style="rounded=0;orthogonalLoop=1;jettySize=auto;html=1;exitX=0;exitY=0;exitDx=120;exitDy=28.80945108961392;exitPerimeter=0;strokeColor=#FFFF00;shadow=0;endArrow=none;endFill=0;strokeWidth=1;fillColor=#fff2cc;dashed=1;dashPattern=1 2;entryX=1.006;entryY=0.749;entryDx=0;entryDy=0;entryPerimeter=0;" edge="1" parent="1" source="sGS4nasx2kBWRTP7ISPX-57" target="llZTtqRXWTdCPuyKn7po-10">
          <mxGeometry relative="1" as="geometry">
            <mxPoint x="620" y="562" as="sourcePoint" />
            <mxPoint x="690" y="606" as="targetPoint" />
          </mxGeometry>
        </mxCell>
        <mxCell id="sGS4nasx2kBWRTP7ISPX-60" style="rounded=0;orthogonalLoop=1;jettySize=auto;html=1;entryX=0.5;entryY=1;entryDx=0;entryDy=0;entryPerimeter=0;exitX=0.503;exitY=0.481;exitDx=0;exitDy=0;exitPerimeter=0;strokeColor=#FFFF00;shadow=0;endArrow=none;endFill=0;strokeWidth=1;fillColor=#fff2cc;dashed=1;dashPattern=1 2;" edge="1" parent="1" source="sGS4nasx2kBWRTP7ISPX-57" target="llZTtqRXWTdCPuyKn7po-10">
          <mxGeometry relative="1" as="geometry">
            <mxPoint x="570" y="534" as="sourcePoint" />
            <mxPoint x="640" y="580" as="targetPoint" />
          </mxGeometry>
        </mxCell>
        <mxCell id="sGS4nasx2kBWRTP7ISPX-61" style="rounded=0;orthogonalLoop=1;jettySize=auto;html=1;entryX=0;entryY=0;entryDx=0;entryDy=91.1905489103861;entryPerimeter=0;exitX=0;exitY=0;exitDx=0;exitDy=28.809451089613923;exitPerimeter=0;strokeColor=#FFFF00;shadow=0;endArrow=none;endFill=0;strokeWidth=1;fillColor=#fff2cc;dashed=1;dashPattern=1 2;" edge="1" parent="1" source="sGS4nasx2kBWRTP7ISPX-57" target="llZTtqRXWTdCPuyKn7po-10">
          <mxGeometry relative="1" as="geometry">
            <mxPoint x="530" y="548.3299999999999" as="sourcePoint" />
            <mxPoint x="340" y="570.000548910386" as="targetPoint" />
          </mxGeometry>
        </mxCell>
        <mxCell id="sGS4nasx2kBWRTP7ISPX-63" style="rounded=0;orthogonalLoop=1;jettySize=auto;html=1;exitX=0;exitY=0;exitDx=0;exitDy=91.1905489103861;exitPerimeter=0;strokeColor=#FFFF00;shadow=0;endArrow=none;endFill=0;strokeWidth=1;fillColor=#fff2cc;dashed=1;dashPattern=1 2;entryX=0;entryY=0;entryDx=0;entryDy=28.809451089613923;entryPerimeter=0;" edge="1" parent="1" source="sGS4nasx2kBWRTP7ISPX-56" target="llZTtqRXWTdCPuyKn7po-10">
          <mxGeometry relative="1" as="geometry">
            <mxPoint x="490" y="574" as="sourcePoint" />
            <mxPoint x="610" y="530" as="targetPoint" />
          </mxGeometry>
        </mxCell>
        <mxCell id="sGS4nasx2kBWRTP7ISPX-69" style="rounded=0;orthogonalLoop=1;jettySize=auto;html=1;exitX=0.5;exitY=0.473;exitDx=0;exitDy=0;exitPerimeter=0;strokeColor=#FFFF00;shadow=0;endArrow=none;endFill=0;strokeWidth=1;fillColor=#fff2cc;dashed=1;dashPattern=1 2;entryX=0.5;entryY=0;entryDx=0;entryDy=0;entryPerimeter=0;" edge="1" parent="1" source="sGS4nasx2kBWRTP7ISPX-56" target="llZTtqRXWTdCPuyKn7po-10">
          <mxGeometry relative="1" as="geometry">
            <mxPoint x="350" y="318" as="sourcePoint" />
            <mxPoint x="400" y="400" as="targetPoint" />
          </mxGeometry>
        </mxCell>
        <mxCell id="sGS4nasx2kBWRTP7ISPX-70" style="rounded=0;orthogonalLoop=1;jettySize=auto;html=1;exitX=0;exitY=0;exitDx=120;exitDy=91.19054891038608;exitPerimeter=0;strokeColor=#FFFF00;shadow=0;endArrow=none;endFill=0;strokeWidth=1;fillColor=#fff2cc;dashed=1;dashPattern=1 2;entryX=0;entryY=0;entryDx=120.00000000000001;entryDy=28.809451089613923;entryPerimeter=0;" edge="1" parent="1" source="sGS4nasx2kBWRTP7ISPX-56" target="llZTtqRXWTdCPuyKn7po-10">
          <mxGeometry relative="1" as="geometry">
            <mxPoint x="480" y="334" as="sourcePoint" />
            <mxPoint x="610" y="530" as="targetPoint" />
            <Array as="points" />
          </mxGeometry>
        </mxCell>
        <mxCell id="sGS4nasx2kBWRTP7ISPX-79" value="" style="whiteSpace=wrap;html=1;aspect=fixed;fillColor=none;" vertex="1" parent="1">
          <mxGeometry x="500" y="499.8" width="10" height="10" as="geometry" />
        </mxCell>
        <mxCell id="sGS4nasx2kBWRTP7ISPX-80" value="" style="whiteSpace=wrap;html=1;aspect=fixed;" vertex="1" parent="1">
          <mxGeometry x="510" y="499.8" width="10" height="10" as="geometry" />
        </mxCell>
        <mxCell id="sGS4nasx2kBWRTP7ISPX-81" value="" style="whiteSpace=wrap;html=1;aspect=fixed;" vertex="1" parent="1">
          <mxGeometry x="520" y="499.8" width="10" height="10" as="geometry" />
        </mxCell>
        <mxCell id="sGS4nasx2kBWRTP7ISPX-82" value="" style="whiteSpace=wrap;html=1;aspect=fixed;" vertex="1" parent="1">
          <mxGeometry x="530" y="499.8" width="10" height="10" as="geometry" />
        </mxCell>
        <mxCell id="sGS4nasx2kBWRTP7ISPX-83" value="" style="whiteSpace=wrap;html=1;aspect=fixed;" vertex="1" parent="1">
          <mxGeometry x="540" y="499.8" width="10" height="10" as="geometry" />
        </mxCell>
        <mxCell id="sGS4nasx2kBWRTP7ISPX-84" value="" style="whiteSpace=wrap;html=1;aspect=fixed;" vertex="1" parent="1">
          <mxGeometry x="550" y="499.8" width="10" height="10" as="geometry" />
        </mxCell>
        <mxCell id="sGS4nasx2kBWRTP7ISPX-85" value="" style="whiteSpace=wrap;html=1;aspect=fixed;" vertex="1" parent="1">
          <mxGeometry x="560" y="499.8" width="10" height="10" as="geometry" />
        </mxCell>
        <mxCell id="sGS4nasx2kBWRTP7ISPX-86" value="" style="whiteSpace=wrap;html=1;aspect=fixed;" vertex="1" parent="1">
          <mxGeometry x="570" y="499.8" width="10" height="10" as="geometry" />
        </mxCell>
        <mxCell id="sGS4nasx2kBWRTP7ISPX-87" value="" style="whiteSpace=wrap;html=1;aspect=fixed;" vertex="1" parent="1">
          <mxGeometry x="580" y="499.8" width="10" height="10" as="geometry" />
        </mxCell>
        <mxCell id="sGS4nasx2kBWRTP7ISPX-88" value="" style="whiteSpace=wrap;html=1;aspect=fixed;" vertex="1" parent="1">
          <mxGeometry x="590" y="499.8" width="10" height="10" as="geometry" />
        </mxCell>
        <mxCell id="sGS4nasx2kBWRTP7ISPX-89" value="" style="whiteSpace=wrap;html=1;aspect=fixed;" vertex="1" parent="1">
          <mxGeometry x="600" y="499.8" width="10" height="10" as="geometry" />
        </mxCell>
        <mxCell id="sGS4nasx2kBWRTP7ISPX-90" value="" style="whiteSpace=wrap;html=1;aspect=fixed;" vertex="1" parent="1">
          <mxGeometry x="610" y="499.8" width="10" height="10" as="geometry" />
        </mxCell>
        <mxCell id="sGS4nasx2kBWRTP7ISPX-91" value="" style="whiteSpace=wrap;html=1;aspect=fixed;" vertex="1" parent="1">
          <mxGeometry x="620" y="499.8" width="10" height="10" as="geometry" />
        </mxCell>
        <mxCell id="sGS4nasx2kBWRTP7ISPX-92" value="" style="whiteSpace=wrap;html=1;aspect=fixed;" vertex="1" parent="1">
          <mxGeometry x="630" y="499.8" width="10" height="10" as="geometry" />
        </mxCell>
        <mxCell id="sGS4nasx2kBWRTP7ISPX-93" value="" style="whiteSpace=wrap;html=1;aspect=fixed;" vertex="1" parent="1">
          <mxGeometry x="640" y="499.8" width="10" height="10" as="geometry" />
        </mxCell>
        <mxCell id="sGS4nasx2kBWRTP7ISPX-94" value="" style="whiteSpace=wrap;html=1;aspect=fixed;" vertex="1" parent="1">
          <mxGeometry x="650" y="499.8" width="10" height="10" as="geometry" />
        </mxCell>
        <mxCell id="sGS4nasx2kBWRTP7ISPX-95" value="" style="whiteSpace=wrap;html=1;aspect=fixed;fillColor=none;" vertex="1" parent="1">
          <mxGeometry x="500" y="489.8" width="10" height="10" as="geometry" />
        </mxCell>
        <mxCell id="sGS4nasx2kBWRTP7ISPX-96" value="" style="whiteSpace=wrap;html=1;aspect=fixed;" vertex="1" parent="1">
          <mxGeometry x="510" y="489.8" width="10" height="10" as="geometry" />
        </mxCell>
        <mxCell id="sGS4nasx2kBWRTP7ISPX-97" value="" style="whiteSpace=wrap;html=1;aspect=fixed;" vertex="1" parent="1">
          <mxGeometry x="520" y="489.8" width="10" height="10" as="geometry" />
        </mxCell>
        <mxCell id="sGS4nasx2kBWRTP7ISPX-98" value="" style="whiteSpace=wrap;html=1;aspect=fixed;" vertex="1" parent="1">
          <mxGeometry x="530" y="489.8" width="10" height="10" as="geometry" />
        </mxCell>
        <mxCell id="sGS4nasx2kBWRTP7ISPX-99" value="" style="whiteSpace=wrap;html=1;aspect=fixed;" vertex="1" parent="1">
          <mxGeometry x="540" y="489.8" width="10" height="10" as="geometry" />
        </mxCell>
        <mxCell id="sGS4nasx2kBWRTP7ISPX-100" value="" style="whiteSpace=wrap;html=1;aspect=fixed;" vertex="1" parent="1">
          <mxGeometry x="550" y="489.8" width="10" height="10" as="geometry" />
        </mxCell>
        <mxCell id="sGS4nasx2kBWRTP7ISPX-101" value="" style="whiteSpace=wrap;html=1;aspect=fixed;" vertex="1" parent="1">
          <mxGeometry x="560" y="489.8" width="10" height="10" as="geometry" />
        </mxCell>
        <mxCell id="sGS4nasx2kBWRTP7ISPX-102" value="" style="whiteSpace=wrap;html=1;aspect=fixed;" vertex="1" parent="1">
          <mxGeometry x="570" y="489.8" width="10" height="10" as="geometry" />
        </mxCell>
        <mxCell id="sGS4nasx2kBWRTP7ISPX-103" value="" style="whiteSpace=wrap;html=1;aspect=fixed;" vertex="1" parent="1">
          <mxGeometry x="580" y="489.8" width="10" height="10" as="geometry" />
        </mxCell>
        <mxCell id="sGS4nasx2kBWRTP7ISPX-104" value="" style="whiteSpace=wrap;html=1;aspect=fixed;" vertex="1" parent="1">
          <mxGeometry x="590" y="489.8" width="10" height="10" as="geometry" />
        </mxCell>
        <mxCell id="sGS4nasx2kBWRTP7ISPX-105" value="" style="whiteSpace=wrap;html=1;aspect=fixed;" vertex="1" parent="1">
          <mxGeometry x="600" y="489.8" width="10" height="10" as="geometry" />
        </mxCell>
        <mxCell id="sGS4nasx2kBWRTP7ISPX-106" value="" style="whiteSpace=wrap;html=1;aspect=fixed;" vertex="1" parent="1">
          <mxGeometry x="610" y="489.8" width="10" height="10" as="geometry" />
        </mxCell>
        <mxCell id="sGS4nasx2kBWRTP7ISPX-107" value="" style="whiteSpace=wrap;html=1;aspect=fixed;" vertex="1" parent="1">
          <mxGeometry x="620" y="489.8" width="10" height="10" as="geometry" />
        </mxCell>
        <mxCell id="sGS4nasx2kBWRTP7ISPX-108" value="" style="whiteSpace=wrap;html=1;aspect=fixed;" vertex="1" parent="1">
          <mxGeometry x="630" y="489.8" width="10" height="10" as="geometry" />
        </mxCell>
        <mxCell id="sGS4nasx2kBWRTP7ISPX-109" value="" style="whiteSpace=wrap;html=1;aspect=fixed;" vertex="1" parent="1">
          <mxGeometry x="640" y="489.8" width="10" height="10" as="geometry" />
        </mxCell>
        <mxCell id="sGS4nasx2kBWRTP7ISPX-110" value="" style="whiteSpace=wrap;html=1;aspect=fixed;" vertex="1" parent="1">
          <mxGeometry x="650" y="489.8" width="10" height="10" as="geometry" />
        </mxCell>
        <mxCell id="sGS4nasx2kBWRTP7ISPX-136" style="edgeStyle=orthogonalEdgeStyle;rounded=0;orthogonalLoop=1;jettySize=auto;html=1;exitX=0.5;exitY=0;exitDx=0;exitDy=0;entryX=0.5;entryY=1;entryDx=0;entryDy=0;" edge="1" parent="1" source="sGS4nasx2kBWRTP7ISPX-111" target="sGS4nasx2kBWRTP7ISPX-112">
          <mxGeometry relative="1" as="geometry" />
        </mxCell>
        <mxCell id="sGS4nasx2kBWRTP7ISPX-111" value="" style="whiteSpace=wrap;html=1;aspect=fixed;fillColor=#FFFFFF;strokeColor=#FFFF00;" vertex="1" parent="1">
          <mxGeometry x="680" y="499.8" width="10" height="10" as="geometry" />
        </mxCell>
        <mxCell id="sGS4nasx2kBWRTP7ISPX-112" value="" style="whiteSpace=wrap;html=1;aspect=fixed;fillColor=#FFFFFF;strokeColor=#FFFF00;" vertex="1" parent="1">
          <mxGeometry x="680" y="489.8" width="10" height="10" as="geometry" />
        </mxCell>
        <mxCell id="sGS4nasx2kBWRTP7ISPX-113" value="" style="whiteSpace=wrap;html=1;aspect=fixed;fillColor=none;strokeColor=#FFFF00;dashed=1;" vertex="1" parent="1">
          <mxGeometry x="620" y="499.8" width="10" height="10" as="geometry" />
        </mxCell>
        <mxCell id="sGS4nasx2kBWRTP7ISPX-114" value="" style="whiteSpace=wrap;html=1;aspect=fixed;fillColor=none;strokeColor=#FFFF00;dashed=1;" vertex="1" parent="1">
          <mxGeometry x="620" y="489.8" width="10" height="10" as="geometry" />
        </mxCell>
        <mxCell id="sGS4nasx2kBWRTP7ISPX-115" value="" style="endArrow=none;dashed=1;html=1;dashPattern=1 3;strokeWidth=1;rounded=0;exitX=1;exitY=1;exitDx=0;exitDy=0;entryX=0;entryY=1;entryDx=0;entryDy=0;fillColor=#fff2cc;strokeColor=#FFFF00;" edge="1" parent="1" source="sGS4nasx2kBWRTP7ISPX-113" target="sGS4nasx2kBWRTP7ISPX-111">
          <mxGeometry width="50" height="50" relative="1" as="geometry">
            <mxPoint x="580" y="539.8" as="sourcePoint" />
            <mxPoint x="630" y="489.8" as="targetPoint" />
          </mxGeometry>
        </mxCell>
        <mxCell id="sGS4nasx2kBWRTP7ISPX-116" value="" style="endArrow=none;dashed=1;html=1;dashPattern=1 3;strokeWidth=1;rounded=0;exitX=0;exitY=0;exitDx=0;exitDy=0;entryX=0;entryY=0;entryDx=0;entryDy=0;fillColor=#fff2cc;strokeColor=#FFFF00;" edge="1" parent="1" source="sGS4nasx2kBWRTP7ISPX-108" target="sGS4nasx2kBWRTP7ISPX-112">
          <mxGeometry width="50" height="50" relative="1" as="geometry">
            <mxPoint x="640" y="519.8" as="sourcePoint" />
            <mxPoint x="710" y="519.8" as="targetPoint" />
          </mxGeometry>
        </mxCell>
        <mxCell id="sGS4nasx2kBWRTP7ISPX-117" value="" style="whiteSpace=wrap;html=1;aspect=fixed;" vertex="1" parent="1">
          <mxGeometry x="720" y="495" width="10" height="10" as="geometry" />
        </mxCell>
        <mxCell id="sGS4nasx2kBWRTP7ISPX-118" value="" style="whiteSpace=wrap;html=1;aspect=fixed;" vertex="1" parent="1">
          <mxGeometry x="730" y="495" width="10" height="10" as="geometry" />
        </mxCell>
        <mxCell id="sGS4nasx2kBWRTP7ISPX-119" value="" style="whiteSpace=wrap;html=1;aspect=fixed;" vertex="1" parent="1">
          <mxGeometry x="740" y="495" width="10" height="10" as="geometry" />
        </mxCell>
        <mxCell id="sGS4nasx2kBWRTP7ISPX-120" value="" style="whiteSpace=wrap;html=1;aspect=fixed;" vertex="1" parent="1">
          <mxGeometry x="750" y="495" width="10" height="10" as="geometry" />
        </mxCell>
        <mxCell id="sGS4nasx2kBWRTP7ISPX-121" value="" style="whiteSpace=wrap;html=1;aspect=fixed;" vertex="1" parent="1">
          <mxGeometry x="760" y="495" width="10" height="10" as="geometry" />
        </mxCell>
        <mxCell id="sGS4nasx2kBWRTP7ISPX-122" value="" style="whiteSpace=wrap;html=1;aspect=fixed;" vertex="1" parent="1">
          <mxGeometry x="770" y="495" width="10" height="10" as="geometry" />
        </mxCell>
        <mxCell id="sGS4nasx2kBWRTP7ISPX-123" value="" style="whiteSpace=wrap;html=1;aspect=fixed;" vertex="1" parent="1">
          <mxGeometry x="780" y="495" width="10" height="10" as="geometry" />
        </mxCell>
        <mxCell id="sGS4nasx2kBWRTP7ISPX-124" value="" style="whiteSpace=wrap;html=1;aspect=fixed;" vertex="1" parent="1">
          <mxGeometry x="790" y="495" width="10" height="10" as="geometry" />
        </mxCell>
        <mxCell id="sGS4nasx2kBWRTP7ISPX-125" value="" style="whiteSpace=wrap;html=1;aspect=fixed;" vertex="1" parent="1">
          <mxGeometry x="800" y="495" width="10" height="10" as="geometry" />
        </mxCell>
        <mxCell id="sGS4nasx2kBWRTP7ISPX-126" value="" style="whiteSpace=wrap;html=1;aspect=fixed;" vertex="1" parent="1">
          <mxGeometry x="810" y="495" width="10" height="10" as="geometry" />
        </mxCell>
        <mxCell id="sGS4nasx2kBWRTP7ISPX-127" value="" style="whiteSpace=wrap;html=1;aspect=fixed;" vertex="1" parent="1">
          <mxGeometry x="820" y="495" width="10" height="10" as="geometry" />
        </mxCell>
        <mxCell id="sGS4nasx2kBWRTP7ISPX-128" value="" style="whiteSpace=wrap;html=1;aspect=fixed;" vertex="1" parent="1">
          <mxGeometry x="830" y="495" width="10" height="10" as="geometry" />
        </mxCell>
        <mxCell id="sGS4nasx2kBWRTP7ISPX-129" value="" style="whiteSpace=wrap;html=1;aspect=fixed;" vertex="1" parent="1">
          <mxGeometry x="840" y="495" width="10" height="10" as="geometry" />
        </mxCell>
        <mxCell id="sGS4nasx2kBWRTP7ISPX-130" value="" style="whiteSpace=wrap;html=1;aspect=fixed;" vertex="1" parent="1">
          <mxGeometry x="850" y="495" width="10" height="10" as="geometry" />
        </mxCell>
        <mxCell id="sGS4nasx2kBWRTP7ISPX-131" value="" style="whiteSpace=wrap;html=1;aspect=fixed;" vertex="1" parent="1">
          <mxGeometry x="860" y="495" width="10" height="10" as="geometry" />
        </mxCell>
        <mxCell id="sGS4nasx2kBWRTP7ISPX-132" value="" style="whiteSpace=wrap;html=1;aspect=fixed;" vertex="1" parent="1">
          <mxGeometry x="870" y="495" width="10" height="10" as="geometry" />
        </mxCell>
        <mxCell id="sGS4nasx2kBWRTP7ISPX-134" value="" style="endArrow=blockThin;dashed=1;html=1;dashPattern=1 3;strokeWidth=1;rounded=0;exitX=1;exitY=0;exitDx=0;exitDy=0;entryX=0;entryY=0.5;entryDx=0;entryDy=0;fillColor=#fff2cc;strokeColor=#FFFF00;endFill=1;" edge="1" parent="1" source="sGS4nasx2kBWRTP7ISPX-112" target="sGS4nasx2kBWRTP7ISPX-117">
          <mxGeometry width="50" height="50" relative="1" as="geometry">
            <mxPoint x="630" y="499.8" as="sourcePoint" />
            <mxPoint x="700" y="499.8" as="targetPoint" />
          </mxGeometry>
        </mxCell>
        <mxCell id="sGS4nasx2kBWRTP7ISPX-135" value="" style="endArrow=blockThin;dashed=1;html=1;dashPattern=1 3;strokeWidth=1;rounded=0;exitX=1;exitY=1;exitDx=0;exitDy=0;entryX=0;entryY=0.5;entryDx=0;entryDy=0;fillColor=#fff2cc;strokeColor=#FFFF00;endFill=1;" edge="1" parent="1" source="sGS4nasx2kBWRTP7ISPX-111" target="sGS4nasx2kBWRTP7ISPX-117">
          <mxGeometry width="50" height="50" relative="1" as="geometry">
            <mxPoint x="710" y="499.8" as="sourcePoint" />
            <mxPoint x="740" y="514.8" as="targetPoint" />
          </mxGeometry>
        </mxCell>
        <mxCell id="llZTtqRXWTdCPuyKn7po-8" value="" style="html=1;whiteSpace=wrap;shape=isoCube2;backgroundOutline=1;isoAngle=15;fillColor=default;" parent="1" vertex="1">
          <mxGeometry x="280" y="280" width="120" height="120" as="geometry" />
        </mxCell>
        <mxCell id="sGS4nasx2kBWRTP7ISPX-56" value="" style="html=1;whiteSpace=wrap;shape=isoCube2;backgroundOutline=1;isoAngle=15;fillColor=none;strokeColor=#FFFF00;strokeWidth=3;dashed=1;" vertex="1" parent="1">
          <mxGeometry x="280" y="280" width="120" height="120" as="geometry" />
        </mxCell>
        <mxCell id="llZTtqRXWTdCPuyKn7po-3" value="" style="html=1;whiteSpace=wrap;shape=isoCube2;backgroundOutline=1;isoAngle=15;fillColor=none;" parent="1" vertex="1">
          <mxGeometry x="80" y="360" width="120" height="120" as="geometry" />
        </mxCell>
        <mxCell id="llZTtqRXWTdCPuyKn7po-10" value="" style="html=1;whiteSpace=wrap;shape=isoCube2;backgroundOutline=1;isoAngle=15;fillColor=#FFFFFF;strokeColor=#FFFF00;" parent="1" vertex="1">
          <mxGeometry x="340" y="440" width="120" height="120" as="geometry" />
        </mxCell>
        <mxCell id="sGS4nasx2kBWRTP7ISPX-68" style="rounded=0;orthogonalLoop=1;jettySize=auto;html=1;exitX=0.5;exitY=1;exitDx=0;exitDy=0;exitPerimeter=0;strokeColor=#FFFF00;shadow=0;endArrow=none;endFill=0;strokeWidth=1;fillColor=#fff2cc;dashed=1;dashPattern=1 2;entryX=0.496;entryY=0.475;entryDx=0;entryDy=0;entryPerimeter=0;" edge="1" parent="1" source="sGS4nasx2kBWRTP7ISPX-56" target="llZTtqRXWTdCPuyKn7po-10">
          <mxGeometry relative="1" as="geometry">
            <mxPoint x="430" y="410" as="sourcePoint" />
            <mxPoint x="560" y="606" as="targetPoint" />
            <Array as="points" />
          </mxGeometry>
        </mxCell>
        <mxCell id="sGS4nasx2kBWRTP7ISPX-47" style="rounded=0;orthogonalLoop=1;jettySize=auto;html=1;entryX=0.503;entryY=0.478;entryDx=0;entryDy=0;entryPerimeter=0;exitX=0.5;exitY=1;exitDx=0;exitDy=0;exitPerimeter=0;endArrow=none;endFill=0;dashed=1;dashPattern=1 4;fillColor=#dae8fc;strokeColor=#6c8ebf;" edge="1" parent="1" source="llZTtqRXWTdCPuyKn7po-6" target="llZTtqRXWTdCPuyKn7po-7">
          <mxGeometry relative="1" as="geometry">
            <mxPoint x="150" y="427" as="sourcePoint" />
            <mxPoint x="310" y="440" as="targetPoint" />
          </mxGeometry>
        </mxCell>
        <mxCell id="llZTtqRXWTdCPuyKn7po-6" value="" style="html=1;whiteSpace=wrap;shape=isoCube2;backgroundOutline=1;isoAngle=15;fillColor=default;strokeColor=#6c8ebf;dashed=1;strokeWidth=2;" parent="1" vertex="1">
          <mxGeometry x="110" y="430" width="30" height="30" as="geometry" />
        </mxCell>
        <mxCell id="sGS4nasx2kBWRTP7ISPX-71" style="rounded=0;orthogonalLoop=1;jettySize=auto;html=1;entryX=0;entryY=0.5;entryDx=0;entryDy=0;exitX=0.5;exitY=1;exitDx=0;exitDy=0;exitPerimeter=0;strokeColor=#6c8ebf;shadow=0;endArrow=block;endFill=1;strokeWidth=1;fillColor=#dae8fc;" edge="1" parent="1" source="llZTtqRXWTdCPuyKn7po-10" target="sGS4nasx2kBWRTP7ISPX-79">
          <mxGeometry relative="1" as="geometry">
            <mxPoint x="600" y="530" as="sourcePoint" />
            <mxPoint x="740.0000000000001" y="525" as="targetPoint" />
          </mxGeometry>
        </mxCell>
        <mxCell id="sGS4nasx2kBWRTP7ISPX-72" style="rounded=0;orthogonalLoop=1;jettySize=auto;html=1;entryX=0;entryY=0.5;entryDx=0;entryDy=0;exitX=0;exitY=0;exitDx=120;exitDy=91.19054891038608;exitPerimeter=0;strokeColor=#6c8ebf;shadow=0;endArrow=block;endFill=1;strokeWidth=1;fillColor=#dae8fc;" edge="1" parent="1" source="llZTtqRXWTdCPuyKn7po-10" target="sGS4nasx2kBWRTP7ISPX-79">
          <mxGeometry relative="1" as="geometry">
            <mxPoint x="600" y="560" as="sourcePoint" />
            <mxPoint x="720.0000000000001" y="505" as="targetPoint" />
          </mxGeometry>
        </mxCell>
        <mxCell id="sGS4nasx2kBWRTP7ISPX-73" style="rounded=0;orthogonalLoop=1;jettySize=auto;html=1;entryX=0;entryY=0.5;entryDx=0;entryDy=0;strokeColor=#6c8ebf;shadow=0;endArrow=block;endFill=1;strokeWidth=1;fillColor=#dae8fc;exitX=0.498;exitY=0.493;exitDx=0;exitDy=0;exitPerimeter=0;" edge="1" parent="1" source="llZTtqRXWTdCPuyKn7po-10" target="sGS4nasx2kBWRTP7ISPX-79">
          <mxGeometry relative="1" as="geometry">
            <mxPoint x="600" y="560" as="sourcePoint" />
            <mxPoint x="740.0000000000001" y="515" as="targetPoint" />
          </mxGeometry>
        </mxCell>
        <mxCell id="sGS4nasx2kBWRTP7ISPX-74" style="rounded=0;orthogonalLoop=1;jettySize=auto;html=1;entryX=0;entryY=0.5;entryDx=0;entryDy=0;strokeColor=#6c8ebf;shadow=0;endArrow=block;endFill=1;strokeWidth=1;fillColor=#dae8fc;exitX=0;exitY=0;exitDx=120;exitDy=28.80945108961392;exitPerimeter=0;" edge="1" parent="1" source="llZTtqRXWTdCPuyKn7po-10" target="sGS4nasx2kBWRTP7ISPX-79">
          <mxGeometry relative="1" as="geometry">
            <mxPoint x="600" y="509" as="sourcePoint" />
            <mxPoint x="720.0000000000001" y="495" as="targetPoint" />
          </mxGeometry>
        </mxCell>
        <mxCell id="sGS4nasx2kBWRTP7ISPX-75" style="rounded=0;orthogonalLoop=1;jettySize=auto;html=1;entryX=0;entryY=0.5;entryDx=0;entryDy=0;exitX=0.5;exitY=1;exitDx=0;exitDy=0;exitPerimeter=0;strokeColor=#b85450;shadow=0;endArrow=block;endFill=1;strokeWidth=1;fillColor=#f8cecc;" edge="1" parent="1" source="llZTtqRXWTdCPuyKn7po-10" target="sGS4nasx2kBWRTP7ISPX-95">
          <mxGeometry relative="1" as="geometry">
            <mxPoint x="630" y="567" as="sourcePoint" />
            <mxPoint x="740.0000000000001" y="515" as="targetPoint" />
          </mxGeometry>
        </mxCell>
        <mxCell id="sGS4nasx2kBWRTP7ISPX-76" style="rounded=0;orthogonalLoop=1;jettySize=auto;html=1;entryX=0;entryY=0.5;entryDx=0;entryDy=0;exitX=0.5;exitY=0.5;exitDx=0;exitDy=0;exitPerimeter=0;strokeColor=#b85450;shadow=0;endArrow=block;endFill=1;strokeWidth=1;fillColor=#f8cecc;" edge="1" parent="1" source="llZTtqRXWTdCPuyKn7po-10" target="sGS4nasx2kBWRTP7ISPX-95">
          <mxGeometry relative="1" as="geometry">
            <mxPoint x="600" y="560" as="sourcePoint" />
            <mxPoint x="740.01" y="505.01" as="targetPoint" />
          </mxGeometry>
        </mxCell>
        <mxCell id="sGS4nasx2kBWRTP7ISPX-77" style="rounded=0;orthogonalLoop=1;jettySize=auto;html=1;entryX=0;entryY=0.5;entryDx=0;entryDy=0;exitX=0;exitY=0;exitDx=120;exitDy=28.80945108961392;exitPerimeter=0;strokeColor=#b85450;shadow=0;endArrow=block;endFill=1;strokeWidth=1;fillColor=#f8cecc;" edge="1" parent="1" source="llZTtqRXWTdCPuyKn7po-10" target="sGS4nasx2kBWRTP7ISPX-95">
          <mxGeometry relative="1" as="geometry">
            <mxPoint x="600" y="510" as="sourcePoint" />
            <mxPoint x="720.0000000000001" y="485" as="targetPoint" />
          </mxGeometry>
        </mxCell>
        <mxCell id="sGS4nasx2kBWRTP7ISPX-78" style="rounded=0;orthogonalLoop=1;jettySize=auto;html=1;entryX=0;entryY=0.5;entryDx=0;entryDy=0;exitX=0;exitY=0;exitDx=120;exitDy=91.19054891038608;exitPerimeter=0;strokeColor=#b85450;shadow=0;endArrow=block;endFill=1;strokeWidth=1;fillColor=#f8cecc;" edge="1" parent="1" source="llZTtqRXWTdCPuyKn7po-10" target="sGS4nasx2kBWRTP7ISPX-95">
          <mxGeometry relative="1" as="geometry">
            <mxPoint x="650" y="484" as="sourcePoint" />
            <mxPoint x="720.0000000000001" y="495" as="targetPoint" />
          </mxGeometry>
        </mxCell>
        <mxCell id="sGS4nasx2kBWRTP7ISPX-137" value="&lt;div&gt;Input&lt;/div&gt;&lt;div&gt;Video&lt;br&gt;&lt;/div&gt;" style="text;html=1;strokeColor=none;fillColor=none;align=center;verticalAlign=middle;whiteSpace=wrap;rounded=0;" vertex="1" parent="1">
          <mxGeometry x="10" y="405" width="60" height="30" as="geometry" />
        </mxCell>
        <mxCell id="sGS4nasx2kBWRTP7ISPX-138" value="&lt;font color=&quot;#b85450&quot;&gt;Subunit filter 1&lt;/font&gt;" style="text;html=1;strokeColor=none;fillColor=none;align=center;verticalAlign=middle;whiteSpace=wrap;rounded=0;" vertex="1" parent="1">
          <mxGeometry x="120" y="184" width="60" height="30" as="geometry" />
        </mxCell>
        <mxCell id="sGS4nasx2kBWRTP7ISPX-139" value="&lt;font color=&quot;#6c8ebf&quot;&gt;Subunit filter 2&lt;br&gt;&lt;/font&gt;" style="text;html=1;strokeColor=none;fillColor=none;align=center;verticalAlign=middle;whiteSpace=wrap;rounded=0;" vertex="1" parent="1">
          <mxGeometry x="120" y="630" width="60" height="30" as="geometry" />
        </mxCell>
        <mxCell id="sGS4nasx2kBWRTP7ISPX-140" value="&lt;div&gt;Activation&lt;/div&gt;&lt;div&gt;Map 1&lt;br&gt;&lt;/div&gt;" style="text;html=1;strokeColor=none;fillColor=none;align=center;verticalAlign=middle;whiteSpace=wrap;rounded=0;" vertex="1" parent="1">
          <mxGeometry x="370" y="260" width="60" height="30" as="geometry" />
        </mxCell>
        <mxCell id="sGS4nasx2kBWRTP7ISPX-141" value="&lt;div&gt;Activation&lt;/div&gt;&lt;div&gt;Map 2&lt;br&gt;&lt;/div&gt;" style="text;html=1;strokeColor=none;fillColor=none;align=center;verticalAlign=middle;whiteSpace=wrap;rounded=0;" vertex="1" parent="1">
          <mxGeometry x="370" y="718.81" width="60" height="30" as="geometry" />
        </mxCell>
        <mxCell id="sGS4nasx2kBWRTP7ISPX-142" value="&lt;div&gt;&lt;font color=&quot;#ffff00&quot;&gt;Ganglion &lt;br&gt;&lt;/font&gt;&lt;/div&gt;&lt;div&gt;&lt;font color=&quot;#ffff00&quot;&gt;R.F.&lt;br&gt;&lt;/font&gt;&lt;/div&gt;" style="text;html=1;strokeColor=none;fillColor=none;align=center;verticalAlign=middle;whiteSpace=wrap;rounded=0;" vertex="1" parent="1">
          <mxGeometry x="450" y="434.99999999999994" width="60" height="30" as="geometry" />
        </mxCell>
        <mxCell id="sGS4nasx2kBWRTP7ISPX-143" value="&lt;div&gt;&lt;font color=&quot;#ffff00&quot;&gt;Ganglion &lt;br&gt;&lt;/font&gt;&lt;/div&gt;&lt;div&gt;&lt;font color=&quot;#ffff00&quot;&gt;feature weights&lt;br&gt;&lt;/font&gt;&lt;/div&gt;" style="text;html=1;strokeColor=none;fillColor=none;align=center;verticalAlign=middle;whiteSpace=wrap;rounded=0;" vertex="1" parent="1">
          <mxGeometry x="655" y="440" width="60" height="30" as="geometry" />
        </mxCell>
        <mxCell id="sGS4nasx2kBWRTP7ISPX-144" value="Spike frequency" style="text;html=1;strokeColor=none;fillColor=none;align=center;verticalAlign=middle;whiteSpace=wrap;rounded=0;" vertex="1" parent="1">
          <mxGeometry x="815" y="450" width="60" height="30" as="geometry" />
        </mxCell>
        <mxCell id="sGS4nasx2kBWRTP7ISPX-145" value="&lt;div&gt;Feature&lt;/div&gt;&lt;div&gt;scores&lt;br&gt;&lt;/div&gt;" style="text;html=1;strokeColor=none;fillColor=none;align=center;verticalAlign=middle;whiteSpace=wrap;rounded=0;" vertex="1" parent="1">
          <mxGeometry x="580" y="450" width="70" height="30" as="geometry" />
        </mxCell>
        <mxCell id="sGS4nasx2kBWRTP7ISPX-146" value="N@31*108*18" style="text;html=1;strokeColor=none;fillColor=none;align=center;verticalAlign=middle;whiteSpace=wrap;rounded=0;" vertex="1" parent="1">
          <mxGeometry x="10" y="430" width="60" height="30" as="geometry" />
        </mxCell>
        <mxCell id="sGS4nasx2kBWRTP7ISPX-147" value="30*30" style="text;html=1;strokeColor=none;fillColor=none;align=center;verticalAlign=middle;whiteSpace=wrap;rounded=0;" vertex="1" parent="1">
          <mxGeometry x="120" y="160" width="60" height="30" as="geometry" />
        </mxCell>
        <mxCell id="sGS4nasx2kBWRTP7ISPX-148" value="N" style="text;html=1;strokeColor=none;fillColor=none;align=center;verticalAlign=middle;whiteSpace=wrap;rounded=0;" vertex="1" parent="1">
          <mxGeometry x="370" y="230" width="60" height="30" as="geometry" />
        </mxCell>
      </root>
    </mxGraphModel>
  </diagram>
</mxfile>
